# xmcd
#
# Track frame offsets:
#	150
#	14285
#	26500
#	39022
#	55425
#	67853
#	77520
#	91527
#	102395
#	119277
#	130480
#	141300
#	153767
#	165803
#	178748
#	188208
#	200603
#	211179
#	223840
#	236620
#	250165
#	260778
#	272413
#	284153
#
# Disc length: 3926
#
# Revision: 3
# Processed by: cddbd v1.5.1PL0 Copyright (c) Steve Scherf et al.
# Submitted via: audiograbber 1.80
# Normalized: r2:DSETVAR1
#
DISCID=500f5418
DTITLE=Various Artist - The very Best of the West Disc 2
DYEAR=1900
DGENRE=
TTITLE0=Lonnie Donegan - Battle Of New Orleans
TTITLE1=Billie Jo Spears - What I've Got In Mind
TTITLE2=Kingston Trio - Greenback Dollar
TTITLE3=Merle Haggard - Hungry Eyes
TTITLE4=Johnny Cash - Folsom Prison Blues
TTITLE5=The New Christy Minstrels - Green, Green
TTITLE6=George Jones - I'll Give You Something To Drink About
TTITLE7=The Shaklefords - Muddy, Muddy River
TTITLE8=Roy Drusky - The Last Farewell
TTITLE9=Frankie Laine - Love Is A Golden Ring
TTITLE10=Jimmy C. Newman - Big Bayou
TTITLE11=Leroy Van Dyke - The Auctioneer
TTITLE12=Charlie Rich - The Most Beautiful Girl
TTITLE13=Tammy Wynette, George Jones - Southern California
TTITLE14=Dave Dudley - Six Days On The Roas
TTITLE15=The New Christy Minstrels - Don't Let The Rain Come Down
TTITLE16=Hank Locklin - Please Help Me I'm Falling
TTITLE17=Don Williams - Some Broken Hearts Never Mind
TTITLE18=Buddy Harris - Rosey Thompson
TTITLE19=Roy Drusky - Guantanamera
TTITLE20=Guy Mitchell - Singing The Blues
TTITLE21=Don Gibson - I Can't Stop Loving You
TTITLE22=Rita Remington - Paper Roses
TTITLE23=Orion - Lover Please
EXTD=
EXTT0=
EXTT1=
EXTT2=
EXTT3=
EXTT4=
EXTT5=
EXTT6=
EXTT7=
EXTT8=
EXTT9=
EXTT10=
EXTT11=
EXTT12=
EXTT13=
EXTT14=
EXTT15=
EXTT16=
EXTT17=
EXTT18=
EXTT19=
EXTT20=
EXTT21=
EXTT22=
EXTT23=
PLAYORDER=
